HIERARCHY
ROOT Hips
{
	OFFSET 0.00000 0.00000 0.00000
	CHANNELS 6 Xposition Yposition Zposition Zrotation Yrotation Xrotation 
	JOINT LHipJoint
	{
		OFFSET 0 0 0
		CHANNELS 3 Zrotation Yrotation Xrotation
		JOINT LeftUpLeg
		{
			OFFSET 1.28858 -1.83292 1.03970
			CHANNELS 3 Zrotation Yrotation Xrotation
			JOINT LeftLeg
			{
				OFFSET 2.47846 -6.80952 0.00000
				CHANNELS 3 Zrotation Yrotation Xrotation
				JOINT LeftFoot
				{
					OFFSET 2.75274 -7.56311 0.00000
					CHANNELS 3 Zrotation Yrotation Xrotation
					JOINT LeftToeBase
					{
						OFFSET 0.12848 -0.35301 1.68223
						CHANNELS 3 Zrotation Yrotation Xrotation
						End Site
						{
							OFFSET 0.00000 -0.00000 0.87311
						}
					}
				}
			}
		}
	}
	JOINT RHipJoint
	{
		OFFSET 0 0 0
		CHANNELS 3 Zrotation Yrotation Xrotation
		JOINT RightUpLeg
		{
			OFFSET -1.31183 -1.83292 1.03970
			CHANNELS 3 Zrotation Yrotation Xrotation
			JOINT RightLeg
			{
				OFFSET -2.44740 -6.72417 0.00000
				CHANNELS 3 Zrotation Yrotation Xrotation
				JOINT RightFoot
				{
					OFFSET -2.67343 -7.34519 0.00000
					CHANNELS 3 Zrotation Yrotation Xrotation
					JOINT RightToeBase
					{
						OFFSET -0.16914 -0.46471 1.77626
						CHANNELS 3 Zrotation Yrotation Xrotation
						End Site
						{
							OFFSET -0.00000 -0.00000 0.92777
						}
					}
				}
			}
		}
	}
	JOINT LowerBack
	{
		OFFSET 0 0 0
		CHANNELS 3 Zrotation Yrotation Xrotation
		JOINT Spine
		{
			OFFSET 0.01249 2.14252 0.03842
			CHANNELS 3 Zrotation Yrotation Xrotation
			JOINT Spine1
			{
				OFFSET -0.02957 2.14199 -0.03751
				CHANNELS 3 Zrotation Yrotation Xrotation
				JOINT Neck
				{
					OFFSET 0 0 0
					CHANNELS 3 Zrotation Yrotation Xrotation
					JOINT Neck1
					{
						OFFSET -0.01678 1.65709 -0.05476
						CHANNELS 3 Zrotation Yrotation Xrotation
						JOINT Head
						{
							OFFSET 0.07912 1.58331 -0.11843
							CHANNELS 3 Zrotation Yrotation Xrotation
							End Site
							{
								OFFSET 0.03298 1.73940 -0.04271
							}
						}
					}
				}
				JOINT LeftShoulder
				{
					OFFSET 0 0 0
					CHANNELS 3 Zrotation Yrotation Xrotation
					JOINT LeftArm
					{
						OFFSET 3.39556 1.16496 0.08673
						CHANNELS 3 Zrotation Yrotation Xrotation
						JOINT LeftForeArm
						{
							OFFSET 5.23910 -0.00000 -0.00000
							CHANNELS 3 Zrotation Yrotation Xrotation
							JOINT LeftHand
							{
								OFFSET 3.31467 -0.00000 0.00000
								CHANNELS 3 Zrotation Yrotation Xrotation
								JOINT LeftFingerBase
								{
									OFFSET 0 0 0
									CHANNELS 3 Zrotation Yrotation Xrotation
									JOINT LeftHandIndex1
									{
										OFFSET 0.96590 -0.00000 0.00000
										CHANNELS 3 Zrotation Yrotation Xrotation
										End Site
										{
											OFFSET 0.77873 -0.00000 0.00000
										}
									}
								}
								JOINT LThumb
								{
									OFFSET 0 0 0
									CHANNELS 3 Zrotation Yrotation Xrotation
									End Site
									{
										OFFSET 0.79062 -0.00000 0.79062
									}
								}
							}
						}
					}
				}
				JOINT RightShoulder
				{
					OFFSET 0 0 0
					CHANNELS 3 Zrotation Yrotation Xrotation
					JOINT RightArm
					{
						OFFSET -3.27193 1.31331 0.33940
						CHANNELS 3 Zrotation Yrotation Xrotation
						JOINT RightForeArm
						{
							OFFSET -5.30252 -0.00000 0.00000
							CHANNELS 3 Zrotation Yrotation Xrotation
							JOINT RightHand
							{
								OFFSET -3.67875 -0.00000 0.00000
								CHANNELS 3 Zrotation Yrotation Xrotation
								JOINT RightFingerBase
								{
									OFFSET 0 0 0
									CHANNELS 3 Zrotation Yrotation Xrotation
									JOINT RightHandIndex1
									{
										OFFSET -0.59481 -0.00000 0.00000
										CHANNELS 3 Zrotation Yrotation Xrotation
										End Site
										{
											OFFSET -0.47955 -0.00000 0.00000
										}
									}
								}
								JOINT RThumb
								{
									OFFSET 0 0 0
									CHANNELS 3 Zrotation Yrotation Xrotation
									End Site
									{
										OFFSET -0.48687 -0.00000 0.48687
									}
								}
							}
						}
					}
				}
			}
		}
	}
}
MOTION
Frames: 10
Frame Time: .0083333
10.5203 15.9312 29.7584 180.6710 -0.4557 -133.6430 0.0000 0.0000 0.0000 7.6544 15.7843 -53.8382 3.2731 11.1246 32.7013 0.2799 -18.3337 -15.2949 2.8571 10.4601 30.4798 0.0000 0.0000 0.0000 -10.5620 -7.4665 -50.3785 -3.0121 -10.7146 31.3233 -2.4903 -3.1897 -31.0872 -1.7825 8.3976 -23.9283 5.4896 5.2121 51.1160 -1.4513 5.6579 8.4840 -6.4187 1.3118 -10.6050 10.1963 -6.3520 1.8237 -0.4691 -8.0434 -3.5694 -1.6847 -4.1037 -1.9179 -0.0000 0.0000 0.0000 105.9266 -72.5837 -133.8335 9.3361 -15.6945 -1.2895 -0.0000 0.0000 -8.4839 32.7309 -6.6505 -4.2571 -7.1250 0.0000 -0.0000 4.3588 22.0966 -2.4058 -0.0000 0.0000 0.0000 -19.5173 56.3599 -63.5433 -9.7298 16.3158 -1.3981 0.0000 0.0000 13.5211 -23.6344 -47.0627 17.7639 7.1250 -0.0000 -0.0000 35.7358 -77.4411 -27.7245
10.5233 15.8425 29.5754 181.1470 -0.1613 -133.8720 0.0000 0.0000 0.0000 7.9082 16.7902 -53.5748 3.5382 11.5191 34.0513 0.2709 -19.1511 -15.7107 2.4052 9.6635 27.8938 0.0000 0.0000 0.0000 -10.1995 -7.3326 -50.2389 -3.2038 -11.0178 32.3401 -2.5514 -2.3366 -31.1045 -2.0792 9.0291 -25.8863 1.4289 2.5759 52.7320 -1.7927 7.6409 8.1424 -6.3776 4.7191 -11.3745 10.4130 -6.4049 1.7650 -0.8963 -8.1345 -3.3524 -1.8636 -4.1376 -1.8756 0.0000 0.0000 0.0000 107.1285 -72.3101 -135.8505 9.5763 -16.0742 -1.3553 -0.0000 0.0000 -8.9102 33.2001 -6.5406 -4.2629 -7.1250 0.0000 -0.0000 4.7095 22.1867 -2.5909 0.0000 0.0000 0.0000 -20.6729 56.3317 -64.3864 -9.8757 16.5448 -1.4393 0.0000 0.0000 12.7767 -24.0331 -47.6451 18.2386 7.1250 -0.0000 -0.0000 37.3418 -78.0016 -29.4307
10.5246 15.7493 29.3885 181.6150 0.1230 -134.0240 0.0000 0.0000 0.0000 8.1831 17.7296 -53.3237 3.8093 11.9022 35.3869 0.2472 -20.0407 -16.0707 2.0816 9.0340 25.9018 0.0000 0.0000 0.0000 -9.8763 -7.1617 -50.0910 -3.3862 -11.2954 33.2827 -2.6265 -1.5456 -31.2487 -2.3881 9.6316 -27.7918 1.1059 2.9230 54.4616 -1.6649 8.0113 7.9951 -6.3281 4.8816 -11.7363 10.5789 -6.4461 1.6076 -1.2796 -8.2237 -3.0130 -2.0250 -4.1674 -1.7708 -0.0000 0.0000 0.0000 107.9961 -72.1690 -137.2997 9.8772 -16.5473 -1.4398 -0.0000 0.0000 -9.5354 33.6272 -6.3425 -4.2021 -7.1250 0.0000 -0.0000 5.0387 22.3858 -2.7504 -0.0000 0.0000 0.0000 -21.6593 56.4404 -65.1443 -10.0537 16.8235 -1.4904 0.0000 0.0000 12.0321 -24.6293 -48.1119 18.8446 7.1250 -0.0000 -0.0000 38.4593 -78.5569 -30.7575
10.5247 15.6523 29.1974 182.0620 0.4472 -134.0530 0.0000 0.0000 0.0000 8.4267 18.6173 -53.1179 4.0834 12.2705 36.6958 0.2307 -20.9062 -16.4878 1.8001 8.4366 24.0482 0.0000 0.0000 0.0000 -9.6340 -6.9171 -49.9982 -3.5575 -11.5471 34.1479 -2.7158 -0.8768 -31.5348 -2.6925 10.1798 -29.5609 0.7721 3.2667 55.9990 -1.5818 8.3285 7.8626 -6.2909 5.0177 -12.0356 10.6370 -6.4782 1.3557 -1.5395 -8.3119 -2.5313 -2.1329 -4.1933 -1.5906 0.0000 0.0000 0.0000 108.5613 -72.1459 -138.2137 10.2385 -17.1117 -1.5444 -0.0000 0.0000 -10.4256 33.9801 -6.0764 -4.0810 -7.1250 0.0000 -0.0000 5.3215 22.6737 -2.8709 0.0000 0.0000 0.0000 -22.4196 56.7034 -65.8570 -10.2703 17.1613 -1.5538 0.0000 0.0000 11.3738 -25.5174 -48.3775 19.6382 7.1250 -0.0000 -0.0000 38.5703 -79.1027 -31.2463
10.5238 15.5526 29.0010 182.4790 0.7960 -133.9590 0.0000 0.0000 0.0000 8.6336 19.4296 -52.9482 4.3529 12.6158 37.9469 0.2325 -21.6940 -17.0012 1.5268 7.8018 22.1138 0.0000 0.0000 0.0000 -9.4567 -6.6313 -49.9440 -3.7123 -11.7674 34.9141 -2.8199 -0.3483 -31.9585 -2.9896 10.6783 -31.2023 0.4579 3.5925 57.3333 -1.5503 8.5967 7.7553 -6.2879 5.1316 -12.2638 10.6171 -6.4947 1.0763 -1.6995 -8.3812 -1.9789 -2.1975 -4.2086 -1.3729 -0.0000 -0.0000 0.0000 109.0276 -72.2159 -138.8895 10.6516 -17.7523 -1.6682 -0.0000 0.0000 -11.5539 34.1963 -5.7611 -3.9020 -7.1250 0.0000 -0.0000 5.5105 23.0335 -2.9282 -0.0000 -0.0000 0.0000 -22.9696 57.0580 -66.4899 -10.5102 17.5336 -1.6253 0.0000 0.0000 10.8030 -26.5820 -48.4902 20.5409 7.1250 -0.0000 -0.0000 37.8831 -79.6304 -31.0417
10.5215 15.4514 28.7982 182.8550 1.1332 -133.7630 0.0000 0.0000 0.0000 8.8182 20.1308 -52.7802 4.6073 12.9274 39.0975 0.2812 -22.3532 -17.7604 1.2090 6.9754 19.6424 0.0000 0.0000 0.0000 -9.3214 -6.3473 -49.8776 -3.8445 -11.9505 35.5572 -2.9388 0.0629 -32.5014 -3.2662 11.1140 -32.6653 0.1958 3.8797 58.4991 -1.5583 8.8188 7.6649 -6.3230 5.2238 -12.4393 10.5659 -6.5174 0.7860 -1.7955 -8.4591 -1.3356 -2.2380 -4.2260 -1.1208 -0.0000 0.0000 0.0000 109.6123 -72.3805 -139.6848 11.0992 -18.4401 -1.8072 -0.0000 0.0000 -12.8178 34.2764 -5.4594 -3.7100 -7.1250 0.0000 -0.0000 5.5991 23.3890 -2.9298 -0.0000 0.0000 0.0000 -23.2742 57.4782 -66.9710 -10.7707 17.9360 -1.7046 0.0000 0.0000 10.3653 -27.6423 -48.5087 21.4202 7.1250 -0.0000 -0.0000 36.7626 -80.1017 -30.4147
10.5170 15.3496 28.5881 183.1910 1.4252 -133.4800 0.0000 0.0000 0.0000 9.0018 20.6919 -52.5873 4.8384 13.1995 40.1199 0.4215 -22.8244 -18.9929 0.7982 5.7026 15.9238 0.0000 0.0000 0.0000 -9.2104 -6.0740 -49.7739 -3.9589 -12.1055 36.1063 -3.0761 0.4017 -33.1603 -3.5014 11.4655 -33.8665 0.0006 4.1071 59.5254 -1.5897 8.9889 7.5893 -6.3834 5.2923 -12.5733 10.5344 -6.5466 0.5033 -1.8987 -8.5460 -0.6127 -2.2864 -4.2463 -0.8478 -0.0000 -0.0000 0.0000 110.3634 -72.6462 -140.7306 11.5687 -19.1548 -1.9585 -0.0000 0.0000 -14.0931 34.2826 -5.1983 -3.5344 -7.1250 0.0000 -0.0000 5.6292 23.7018 -2.9051 -0.0000 -0.0000 0.0000 -23.3594 57.9611 -67.2468 -11.0552 18.3728 -1.7933 0.0000 0.0000 10.0199 -28.5518 -48.5198 22.1784 7.1250 -0.0000 -0.0000 35.7400 -80.5072 -29.8123
10.5102 15.2487 28.3696 183.4880 1.6639 -133.1330 0.0000 0.0000 0.0000 9.1857 21.1094 -52.3379 5.0405 13.4292 40.9972 0.5634 -23.3331 -20.2013 0.5192 4.6180 12.8223 0.0000 0.0000 0.0000 -9.1241 -5.7952 -49.6018 -4.0585 -12.2378 36.5786 -3.2322 0.6905 -33.9222 -3.6963 11.7449 -34.8355 -0.1452 4.2713 60.4620 -1.6338 9.1028 7.5277 -6.4485 5.3365 -12.6759 10.5346 -6.5700 0.2293 -2.0415 -8.6268 0.1837 -2.3564 -4.2623 -0.5575 -0.0000 0.0000 0.0000 111.2198 -73.0189 -141.9478 12.0652 -19.9024 -2.1244 -0.0000 0.0000 -15.3505 34.2678 -5.0082 -3.4039 -7.1250 0.0000 -0.0000 5.6368 23.9308 -2.8792 -0.0000 0.0000 0.0000 -23.2871 58.5090 -67.3174 -11.3677 18.8496 -1.8930 0.0000 0.0000 9.7502 -29.2615 -48.5886 22.7924 7.1250 -0.0000 -0.0000 35.2055 -80.8658 -29.5885
10.5011 15.1495 28.1425 183.7390 1.8631 -132.7140 0.0000 0.0000 0.0000 9.3417 21.3963 -52.0469 5.2121 13.6187 41.7310 0.6874 -23.9292 -21.2985 0.3634 3.8724 10.7181 0.0000 0.0000 0.0000 -9.0853 -5.4996 -49.3673 -4.1417 -12.3466 36.9694 -3.4005 0.9408 -34.7433 -3.8457 11.9522 -35.5633 -0.2670 4.3697 61.3122 -1.6944 9.1452 7.4884 -6.5036 5.3520 -12.7424 10.5526 -6.5757 -0.0284 -2.2127 -8.6845 1.0099 -2.4415 -4.2672 -0.2620 0.0000 -0.0000 0.0000 111.9980 -73.5059 -143.0552 12.6081 -20.7103 -2.3128 -0.0000 0.0000 -16.6532 34.2395 -4.9233 -3.3429 -7.1250 0.0000 -0.0000 5.6241 24.0347 -2.8590 0.0000 -0.0000 0.0000 -23.1220 59.1361 -67.1738 -11.7060 19.3623 -2.0038 0.0000 0.0000 9.4943 -30.0105 -48.7128 23.4614 7.1250 -0.0000 -0.0000 34.8946 -81.2810 -29.5890
10.4896 15.0525 27.9063 183.9510 2.0362 -132.2010 0.0000 0.0000 0.0000 9.4530 21.5754 -51.7429 5.3542 13.7719 42.3312 0.7830 -24.6360 -22.2508 0.2983 3.5117 9.7068 0.0000 0.0000 0.0000 -9.1007 -5.1805 -49.0960 -4.2061 -12.4298 37.2697 -3.5688 1.1437 -35.5592 -3.9579 12.1041 -36.1014 -0.3767 4.3936 62.0599 -1.7862 9.0987 7.4829 -6.5505 5.3335 -12.7612 10.5833 -6.5504 -0.2350 -2.4008 -8.6948 1.7770 -2.5343 -4.2517 0.0074 -0.0000 -0.0000 0.0000 112.5172 -74.1116 -143.7341 13.2214 -21.6108 -2.5343 -0.0000 0.0000 -18.0241 34.3770 -5.0574 -3.4512 -7.1250 0.0000 -0.0000 5.7124 23.8641 -2.9270 -0.0000 -0.0000 0.0000 -22.9093 59.8702 -66.8252 -12.0699 19.9093 -2.1260 0.0000 0.0000 9.1935 -31.2455 -48.8658 24.5583 7.1250 -0.0000 -0.0000 34.1207 -81.9387 -29.3313
